<?xml version="1.0" standalone="no"?>
<!DOCTYPE svg PUBLIC "-//W3C//DTD SVG 20010904//EN"
 "http://www.w3.org/TR/2001/REC-SVG-20010904/DTD/svg10.dtd">
<svg version="1.0" xmlns="http://www.w3.org/2000/svg"
 width="577.000000pt" height="433.000000pt" viewBox="0 0 577.000000 433.000000"
 preserveAspectRatio="xMidYMid meet">

<g transform="translate(0.000000,433.000000) scale(0.100000,-0.100000)"
fill="#ffffff" stroke="none">
<path d="M2680 3275 c-290 -55 -538 -213 -702 -446 l-42 -59 -759 0 c-844 0
-805 3 -827 -66 -17 -50 2 -81 176 -289 331 -396 671 -709 1031 -953 l115 -77
201 -3 200 -3 61 -53 c166 -143 330 -226 526 -266 145 -30 368 -24 512 13 169
44 345 139 467 253 l57 53 201 3 200 3 74 49 c238 157 481 359 720 596 260
258 505 544 529 616 14 41 -8 95 -46 113 -18 8 -237 11 -782 11 l-757 0 -30
48 c-45 73 -210 232 -307 296 -96 63 -213 115 -335 148 -102 27 -369 34 -483
13z m455 -104 c238 -61 464 -218 596 -412 23 -35 47 -67 53 -71 6 -4 356 -8
779 -8 422 0 767 -4 767 -8 0 -5 -32 -49 -72 -98 -332 -413 -728 -784 -1128
-1055 l-65 -44 -204 -3 -204 -3 -66 -61 c-131 -120 -275 -199 -446 -245 -88
-23 -120 -26 -260 -27 -134 0 -174 4 -243 22 -171 45 -316 124 -450 245 l-73
66 -207 3 -207 3 -115 79 c-271 186 -570 446 -788 688 -141 155 -362 418 -362
430 0 4 345 8 768 8 422 0 772 4 778 8 5 4 35 41 66 83 174 236 409 380 688
419 105 14 303 5 395 -19z"/>
<path d="M2730 3069 c-280 -50 -539 -253 -655 -515 -55 -123 -70 -206 -69
-369 1 -132 4 -160 27 -238 181 -596 881 -837 1376 -472 178 131 301 321 347
538 22 105 20 276 -6 385 -57 241 -233 468 -449 581 -125 65 -234 92 -386 96
-71 2 -155 0 -185 -6z m375 -49 c233 -60 429 -216 539 -430 63 -120 87 -211
93 -354 13 -262 -67 -468 -251 -651 -127 -126 -253 -194 -426 -231 -85 -18
-261 -18 -348 1 -320 67 -562 297 -654 622 -31 110 -31 313 -1 428 89 329 343
568 670 630 103 19 272 13 378 -15z"/>
<path d="M2768 2970 c-303 -48 -559 -279 -640 -579 -27 -100 -29 -285 -5 -385
65 -263 262 -474 522 -562 116 -38 305 -45 425 -15 189 48 347 154 455 306 68
96 100 166 136 300 18 66 18 275 0 340 -82 304 -280 503 -571 576 -90 22 -244
31 -322 19z m546 -255 c30 -20 61 -79 51 -95 -4 -6 -32 -10 -64 -10 -50 0 -59
3 -64 20 -9 34 -87 40 -87 6 0 -10 20 -21 58 -31 132 -37 163 -60 170 -133 4
-42 0 -52 -24 -81 -38 -45 -80 -61 -161 -61 -90 0 -130 21 -162 84 -13 26 -21
50 -17 53 4 4 33 9 66 11 48 4 60 1 60 -10 0 -8 11 -25 25 -38 21 -20 30 -22
53 -14 33 11 42 48 15 62 -10 5 -34 13 -53 17 -19 4 -54 16 -78 27 -96 45 -95
160 2 204 44 21 172 13 210 -11z m-756 -182 l-3 -198 -62 -3 -63 -3 0 201 0
200 65 0 65 0 -2 -197z m430 150 l-3 -48 -62 -3 -63 -3 0 -150 0 -150 -62 3
-63 3 -3 148 -3 147 -59 0 -60 0 0 50 0 50 191 0 190 0 -3 -47z m-311 -648
c17 -20 23 -38 23 -76 0 -42 -5 -55 -29 -80 -24 -24 -38 -29 -76 -29 -38 0
-52 5 -76 29 -24 25 -29 38 -29 78 1 77 44 117 120 109 32 -3 50 -11 67 -31z
m428 5 c49 -46 37 -152 -21 -179 -56 -25 -125 -8 -149 38 -26 52 -20 98 20
138 33 33 39 35 81 30 28 -3 54 -13 69 -27z m432 4 c21 -29 16 -44 -16 -44
-17 0 -33 5 -36 10 -3 6 -16 10 -28 10 -29 0 -11 -15 35 -30 67 -21 86 -73 43
-115 -35 -36 -106 -35 -141 0 -14 14 -24 31 -21 38 6 19 59 21 69 3 11 -20 48
-21 48 -1 0 8 -14 17 -34 20 -79 15 -103 87 -41 124 28 16 106 7 122 -15z
m-1207 -26 c6 -24 12 -47 14 -53 1 -5 8 14 15 43 l13 52 44 0 44 0 0 -100 0
-100 -30 0 c-28 0 -30 2 -31 43 l-1 42 -11 -43 c-9 -40 -12 -43 -41 -40 -27 3
-32 8 -42 48 l-12 45 -1 -47 c-1 -46 -2 -48 -31 -48 l-30 0 0 100 0 100 45 0
c44 0 44 0 55 -42z m580 17 c0 -21 -5 -25 -30 -25 l-30 0 0 -75 0 -75 -35 0
-35 0 0 75 0 75 -35 0 c-31 0 -35 3 -35 25 l0 25 100 0 100 0 0 -25z m421 15
c23 -13 26 -72 4 -90 -13 -11 -11 -18 11 -56 l26 -44 -40 0 c-35 0 -43 4 -62
35 -12 19 -26 35 -31 35 -5 0 -9 -16 -9 -35 0 -33 -2 -35 -35 -35 l-35 0 0
100 0 100 76 0 c41 0 84 -5 95 -10z"/>
<path d="M2567 2004 c-13 -14 -7 -81 9 -95 27 -22 49 1 49 52 0 40 -3 44 -25
47 -14 2 -29 0 -33 -4z"/>
<path d="M3006 2004 c-19 -19 -21 -64 -3 -88 29 -39 78 13 62 65 -10 30 -41
42 -59 23z"/>
<path d="M3230 2000 c0 -5 11 -10 25 -10 14 0 25 5 25 10 0 6 -11 10 -25 10
-14 0 -25 -4 -25 -10z"/>
<path d="M620 2523 c0 -5 30 -41 68 -80 l67 -73 545 0 c300 0 550 4 557 8 10
6 43 114 43 141 0 8 -179 11 -640 11 -352 0 -640 -3 -640 -7z"/>
<path d="M3870 2524 c0 -19 33 -131 42 -141 13 -17 1032 -19 1090 -3 25 7 51
28 86 68 27 31 52 63 56 70 6 9 -124 12 -633 12 -353 0 -641 -3 -641 -6z"/>
<path d="M1011 2105 l76 -75 387 0 386 0 0 44 c0 24 -3 58 -6 75 l-6 31 -457
0 -456 0 76 -75z"/>
<path d="M3927 2173 c-3 -5 -8 -38 -12 -75 l-7 -68 388 0 389 1 77 74 78 75
-455 0 c-249 0 -456 -3 -458 -7z"/>
<path d="M1310 1836 c0 -9 170 -137 195 -146 27 -10 475 -14 475 -4 0 3 -15
39 -34 80 l-35 74 -300 0 c-166 0 -301 -2 -301 -4z"/>
<path d="M3831 1772 c-17 -38 -31 -74 -31 -80 0 -17 442 -17 473 -1 26 14 187
138 187 145 0 2 -134 4 -299 4 l-298 0 -32 -68z"/>
</g>
</svg>
